# xmcd
#
# Track frame offsets: 
#        150
#        22311
#        43594
#        63179
#        91689
#        104249
#        123949
#        152786
#        169251
#        194626
#        207731
#        230684
#
# Disc length: 3251 seconds
#
# Revision: 3
# Processed by: cddbd v1.5.2PL0 Copyright (c) Steve Scherf et al.
# Submitted via: ExactAudioCopy v1.3
#
DISCID=b10cb10c
DTITLE=Otis Rush - Troubles, Troubles
DYEAR=1977
DGENRE=Chicago Blues
TTITLE0=Baby What You Want Me To Do?
TTITLE1=Little Red Rooster
TTITLE2=Whole Lotta Lovin'
TTITLE3=Gotta Be Some Changes Made
TTITLE4=You Been An Angel
TTITLE5=You Don't Have To Go
TTITLE6=Troubles, Troubles, Troubles
TTITLE7=Miss You So
TTITLE8=Hold Your Train
TTITLE9=Same Old Blues
TTITLE10=You Been an Angel (Alt. Take)
TTITLE11=Same Old Blues (Alt. Take)
EXTD=Recorded in Stickholm by Sonet Records in 1877, this is a 2005 re
EXTD=mastered re-release.
EXTT0=
EXTT1=
EXTT2=
EXTT3=
EXTT4=
EXTT5=
EXTT6=
EXTT7=
EXTT8=
EXTT9=
EXTT10=
EXTT11=
PLAYORDER=
